<svg xmlns="http://www.w3.org/2000/svg" width="9.937" height="9.938" viewBox="0 0 9.937 9.938">
  <defs>
    <style>
      .cls-1 {
        fill: #a5a39b;
        fill-rule: evenodd;
      }
    </style>
  </defs>
  <path class="cls-1" d="M864.777,181.183a2.787,2.787,0,0,1-4.25,2.372A4.613,4.613,0,0,1,855.2,179a4.735,4.735,0,0,1,.056-0.719,2.787,2.787,0,0,1,3.835-3.835,4.608,4.608,0,0,1,5.274,5.274A2.771,2.771,0,0,1,864.777,181.183Zm-2.656-1.78a1.436,1.436,0,0,0-.472-0.5,3.01,3.01,0,0,0-.727-0.335,9.828,9.828,0,0,0-.951-0.251c-0.278-.066-0.479-0.115-0.6-0.149a1.924,1.924,0,0,1-.355-0.14,0.811,0.811,0,0,1-.273-0.21,0.44,0.44,0,0,1-.1-0.285,0.548,0.548,0,0,1,.288-0.459,1.381,1.381,0,0,1,.772-0.194,1.236,1.236,0,0,1,.748.178,1.472,1.472,0,0,1,.4.5,1.356,1.356,0,0,0,.248.334,0.5,0.5,0,0,0,.341.1,0.549,0.549,0,0,0,.411-0.173,0.555,0.555,0,0,0,.164-0.389,1.014,1.014,0,0,0-.13-0.476,1.51,1.51,0,0,0-.406-0.463,2.187,2.187,0,0,0-.7-0.353,3.327,3.327,0,0,0-.993-0.132,3.55,3.55,0,0,0-1.249.2,1.772,1.772,0,0,0-.817.574,1.378,1.378,0,0,0-.283.855,1.326,1.326,0,0,0,.268.846,1.813,1.813,0,0,0,.723.535,6.175,6.175,0,0,0,1.121.341c0.332,0.07.6,0.137,0.795,0.2a1.209,1.209,0,0,1,.478.268,0.588,0.588,0,0,1,.181.449,0.69,0.69,0,0,1-.339.584,1.54,1.54,0,0,1-.9.237,1.5,1.5,0,0,1-.646-0.117,1,1,0,0,1-.379-0.3,2.266,2.266,0,0,1-.253-0.454,0.923,0.923,0,0,0-.24-0.357,0.519,0.519,0,0,0-.35-0.123,0.583,0.583,0,0,0-.418.157,0.506,0.506,0,0,0-.165.378,1.352,1.352,0,0,0,.268.762,1.987,1.987,0,0,0,.694.624,3.179,3.179,0,0,0,1.523.324,3.415,3.415,0,0,0,1.331-.237A1.916,1.916,0,0,0,862,181.1a1.623,1.623,0,0,0,.293-0.949A1.519,1.519,0,0,0,862.121,179.4Z" transform="translate(-854.844 -174.031)"/>
</svg>
