<svg xmlns="http://www.w3.org/2000/svg" width="13.406" height="9.656" viewBox="0 0 13.406 9.656">
  <defs>
    <style>
      .cls-1 {
        fill: #a5a39b;
        fill-rule: evenodd;
      }
    </style>
  </defs>
  <path class="cls-1" d="M829.563,181s2.654,2.308,4.765.02a1.092,1.092,0,0,1-.58-0.175,1.018,1.018,0,0,1-.288-0.492s0.656-.367.41-0.644c0,0-1.452-.029-1.533-0.906l0.853-.55a0.82,0.82,0,0,1-.667,0,1.516,1.516,0,0,1-.7-1.25l0.72-.073s-1.248-.887-0.9-1.568c0,0,.12-0.586,4.248,2.154,0,0,.727-2.589,2.072-3.159a0.407,0.407,0,0,1,.223.221,0.85,0.85,0,0,1,.442-0.448s0.3,0.268.106,0.42a0.9,0.9,0,0,1,.761-0.172,1.159,1.159,0,0,1-.755.7s1.907,0.106,2.573,2.65a2.6,2.6,0,0,0,1.651-.36s0.018,0.534-1.188,1.065a1.4,1.4,0,0,0,1.123.044s-0.008.8-1.607,0.793c0,0-1.351,3.865-4.633,4.4C832.673,184.322,829.871,182.328,829.563,181Z" transform="translate(-829.563 -174.125)"/>
</svg>
